<?xml version="1.0" encoding="UTF-8" standalone="no"?>
<svg
   xmlns:dc="http://purl.org/dc/elements/1.1/"
   xmlns:cc="http://creativecommons.org/ns#"
   xmlns:rdf="http://www.w3.org/1999/02/22-rdf-syntax-ns#"
   xmlns:svg="http://www.w3.org/2000/svg"
   xmlns="http://www.w3.org/2000/svg"
   id="svg8"
   version="1.1"
   viewBox="0 0 62.054962 62.026802"
   height="62.026802mm"
   width="62.054962mm">
  <defs
     id="defs2" />
  <metadata
     id="metadata5">
    <rdf:RDF>
      <cc:Work
         rdf:about="">
        <dc:format>image/svg+xml</dc:format>
        <dc:type
           rdf:resource="http://purl.org/dc/dcmitype/StillImage" />
        <dc:title></dc:title>
      </cc:Work>
    </rdf:RDF>
  </metadata>
  <g
     transform="translate(-79.34157,-79.26636)"
     id="layer1">
    <g
       transform="translate(-4.5306414,7.578601)"
       id="layer1-2">
      <g
         transform="translate(2.2678573,5.2916668)"
         id="g4759">
        <path
           id="path4769"
           d="m 95.509465,117.16025 c -1.053687,-0.41042 -1.814837,-0.7895 -2.260377,-1.47695 -1.202969,-1.38881 -1.564695,-3.75286 0.657506,-7.52307 2.083788,-4.1054 4.6168,-6.7319 7.283076,-5.97259 3.45954,0.89802 7.09737,7.32439 7.14798,10.75805 0.021,1.42427 -0.13035,2.06228 -0.94741,2.91552 -0.54322,0.56727 -1.74425,1.12135 -2.48472,1.3432 -1.9323,0.76204 -9.396055,0.99686 -9.396055,-0.0443 z"
           style="fill:#f4d72c;stroke-width:0.35277778" />
        <path
           id="path4767"
           d="m 95.156294,92.667482 c -1.515003,-0.662322 -2.213547,-1.971105 -2.628546,-4.97536 -0.385401,-2.789996 -0.04675,-6.457735 0.856887,-8.205168 1.375027,-2.65901 4.060317,-2.983374 8.110215,-0.979654 3.05828,1.513114 4.96675,2.939477 6.02169,5.025652 1.01585,2.008875 0.31007,3.519662 -1.90644,5.5125 -3.43976,3.092638 -6.213141,5.475944 -10.453806,3.62203 z"
           style="fill:#2d9df9;stroke-width:0.35277778" />
        <path
           id="path4765"
           d="m 123.96642,117.63014 c -2.13425,-0.39261 -6.3987,-6.45639 -6.94554,-9.87612 -0.34477,-2.1561 0.49558,-3.71189 2.54434,-4.71047 1.45312,-0.70826 2.25299,-0.83623 5.24252,-0.83873 4.03548,-0.004 5.62865,0.43697 7.08556,1.95835 1.48612,1.55189 1.39527,3.67706 -0.30325,7.09338 -2.37632,4.77959 -4.88544,6.8773 -7.62363,6.37359 z"
           style="fill:#2cf265;stroke-width:0.35277778" />
        <path
           id="path4763"
           d="m 107.39024,115.86121 c -70.084971,112.17901 -35.042485,56.08951 0,0 z m -15.145672,-2.73403 c -59.987856,114.0017 -29.993928,57.00085 0,0 z M 120.81016,92.085494 c -2.35139,-1.16391 -3.38341,-3.000006 -3.53288,-6.285497 -0.16451,-3.616113 0.33568,-5.290306 2.0408,-6.830771 3.06951,-2.773118 8.89479,-2.736589 11.70478,0.0734 2.7846,2.784604 2.99607,8.776373 0.12429,11.648438 -1.93451,1.934704 -3.09744,2.151497 -6.38034,2.15112 -1.77219,-2.02e-4 -2.8415,-0.204702 -3.95665,-0.756686 z"
           style="fill:#f12d2c;stroke-width:0.35277778" />
        <path
           id="path4761"
           d="m 93.796561,128.10013 c -5.812467,-0.97365 -10.876707,-6.1874 -11.86371,-12.21395 -0.44382,-2.70993 -0.435377,-34.256043 0.0099,-36.978444 1.006618,-6.154459 6.042975,-11.168864 12.236553,-12.183221 2.673758,-0.437897 34.241446,-0.437897 36.915206,0 6.2851,1.029346 11.34303,6.145554 12.24505,12.386161 0.42634,2.949635 0.42634,33.686154 0,36.635784 -0.90202,6.24061 -5.95995,11.35682 -12.24505,12.38617 -2.47885,0.40597 -34.848728,0.37777 -37.297946,-0.0325 z M 105.7309,116.87956 c 2.97597,-1.31641 3.40107,-4.046 1.29604,-8.32192 -1.30833,-2.65759 -3.81033,-5.56231 -5.33519,-6.19393 -2.53338,-1.04936 -5.645479,1.3431 -7.947965,6.11007 -1.508425,3.12299 -1.787847,4.78901 -1.060336,6.32213 1.058771,2.23119 3.776183,3.15636 8.574581,2.91929 1.84699,-0.0913 3.47958,-0.39626 4.47287,-0.83564 z m 21.42634,0.0908 c 2.33796,-1.18871 5.6953,-7.0456 5.73901,-10.01173 0.0212,-1.44 -0.14286,-1.89736 -1.00295,-2.79551 -1.45691,-1.52138 -3.05008,-1.96171 -7.08556,-1.95835 -2.98953,0.002 -3.7894,0.13047 -5.24252,0.83873 -2.04876,0.99858 -2.88911,2.55437 -2.54434,4.71047 0.34275,2.14342 2.55932,6.17645 4.41388,8.03101 2.16548,2.16548 3.32317,2.40529 5.72248,1.18538 z M 101.60236,91.719427 c 3.01358,-1.483579 5.61709,-3.843316 6.13032,-5.556313 0.33278,-1.110748 0.29674,-1.549343 -0.21614,-2.630162 -0.81658,-1.720817 -2.96341,-3.512538 -6.02169,-5.025652 -4.049898,-2.00372 -6.735188,-1.679356 -8.110215,0.979654 -1.389377,2.686757 -1.329224,9.202607 0.107408,11.634631 1.386151,2.346567 4.14505,2.549936 8.110317,0.597842 z m 26.9697,0.710553 c 1.68791,-0.505709 3.6392,-2.581918 4.14774,-4.413246 0.9353,-3.368235 0.24189,-7.035276 -1.69694,-8.974112 -2.80999,-2.809985 -8.63527,-2.846514 -11.70478,-0.0734 -1.70512,1.540465 -2.20531,3.214658 -2.0408,6.830771 0.14947,3.285491 1.18149,5.121587 3.53288,6.285497 1.75226,0.867348 5.46654,1.032194 7.7619,0.344486 z"
           style="fill:#101110;stroke-width:0.35277778" />
      </g>
    </g>
  </g>
</svg>
